<svg xmlns="http://www.w3.org/2000/svg" width="1200" height="720" viewBox="0 0 1200 720" role="img" aria-label="Giới thiệu Vườn Ươm Số"><title>Giới thiệu Vườn Ươm Số</title><defs></defs><rect x="0" y="0" width="1200" height="720" rx="0" fill="#F8F7F0"/><circle cx="1039" cy="131" r="205" fill="#BDE9C8" opacity="0.5"/><circle cx="986" cy="571" r="240" fill="#E9EFDF" opacity="0.6"/><rect x="598" y="95" width="520" height="492" rx="23" fill="#FFFFFF" stroke="#DAE5D9" stroke-width="2"/><rect x="598" y="95" width="520" height="66" rx="23" fill="#163E33"/><rect x="598" y="139" width="520" height="22" rx="0" fill="#163E33"/><circle cx="634" cy="130" r="7" fill="#CFE18F"/><text x="653" y="136" font-family="'Noto Sans','Inter',Arial,sans-serif" font-size="19" fill="#FFFFFF" font-weight="730" text-anchor="start" letter-spacing="0">Vườn Ươm Số</text><rect x="986" y="116" width="84" height="28" rx="14" fill="#366F53"/><text x="1028" y="136" font-family="'Noto Sans','Inter',Arial,sans-serif" font-size="10" fill="#FFFFFF" font-weight="650" text-anchor="middle" letter-spacing="0">Bảng hàng</text><text x="632" y="208" font-family="'Noto Sans','Inter',Arial,sans-serif" font-size="21" fill="#163E33" font-weight="750" text-anchor="start" letter-spacing="0">Tổng quan vườn ươm</text><rect x="632" y="228" width="136" height="99" rx="13" fill="#EEF5EC"/><text x="648" y="269" font-family="'Noto Sans','Inter',Arial,sans-serif" font-size="28" fill="#163E33" font-weight="770" text-anchor="start" letter-spacing="0">1.280</text><text x="648" y="294" font-family="'Noto Sans','Inter',Arial,sans-serif" font-size="10" fill="#667A72" font-weight="530" text-anchor="start" letter-spacing="0">Cây sẵn bán</text><rect x="781" y="228" width="136" height="99" rx="13" fill="#F1F3E4"/><text x="797" y="269" font-family="'Noto Sans','Inter',Arial,sans-serif" font-size="28" fill="#163E33" font-weight="770" text-anchor="start" letter-spacing="0">42</text><text x="797" y="294" font-family="'Noto Sans','Inter',Arial,sans-serif" font-size="10" fill="#667A72" font-weight="530" text-anchor="start" letter-spacing="0">Lô đang quản lý</text><rect x="930" y="228" width="136" height="99" rx="13" fill="#F9EED9"/><text x="946" y="269" font-family="'Noto Sans','Inter',Arial,sans-serif" font-size="28" fill="#163E33" font-weight="770" text-anchor="start" letter-spacing="0">18</text><text x="946" y="294" font-family="'Noto Sans','Inter',Arial,sans-serif" font-size="10" fill="#667A72" font-weight="530" text-anchor="start" letter-spacing="0">Đơn trong tháng</text><text x="632" y="365" font-family="'Noto Sans','Inter',Arial,sans-serif" font-size="17" fill="#163E33" font-weight="710" text-anchor="start" letter-spacing="0">Cây đang có sẵn</text><rect x="632" y="386" width="445" height="46" rx="11" fill="#F8F7F0"/><circle cx="657" cy="409" r="14" fill="#CFE18F"/><rect x="684" y="397" width="113" height="8" rx="4" fill="#DFE8DF"/><text x="684" y="418" font-family="'Noto Sans','Inter',Arial,sans-serif" font-size="12" fill="#246C4D" font-weight="650" text-anchor="start" letter-spacing="0">Cây giống</text><text x="1057" y="414" font-family="'Noto Sans','Inter',Arial,sans-serif" font-size="12" fill="#246C4D" font-weight="660" text-anchor="end" letter-spacing="0">360 cây</text><rect x="632" y="440" width="445" height="46" rx="11" fill="#F8F7F0"/><circle cx="657" cy="463" r="14" fill="#CFE18F"/><rect x="684" y="451" width="113" height="8" rx="4" fill="#DFE8DF"/><text x="684" y="472" font-family="'Noto Sans','Inter',Arial,sans-serif" font-size="12" fill="#246C4D" font-weight="650" text-anchor="start" letter-spacing="0">Cây cảnh</text><text x="1057" y="468" font-family="'Noto Sans','Inter',Arial,sans-serif" font-size="12" fill="#246C4D" font-weight="660" text-anchor="end" letter-spacing="0">148 cây</text><rect x="632" y="494" width="445" height="46" rx="11" fill="#F8F7F0"/><circle cx="657" cy="517" r="14" fill="#CFE18F"/><rect x="684" y="505" width="113" height="8" rx="4" fill="#DFE8DF"/><text x="684" y="526" font-family="'Noto Sans','Inter',Arial,sans-serif" font-size="12" fill="#246C4D" font-weight="650" text-anchor="start" letter-spacing="0">Cây công trình</text><text x="1057" y="522" font-family="'Noto Sans','Inter',Arial,sans-serif" font-size="12" fill="#246C4D" font-weight="660" text-anchor="end" letter-spacing="0">72 cây</text><text x="89" y="194" font-family="'Noto Sans','Inter',Arial,sans-serif" font-size="15" fill="#246C4D" font-weight="780" text-anchor="start" letter-spacing="2.4">VƯỜN ƯƠM SỐ</text><text x="84" y="262" font-family="'Noto Sans','Inter',Arial,sans-serif" font-size="55" fill="#163E33" font-weight="810" text-anchor="start" letter-spacing="0">Quản lý vườn</text><text x="84" y="329" font-family="'Noto Sans','Inter',Arial,sans-serif" font-size="52" fill="#163E33" font-weight="810" text-anchor="start" letter-spacing="0">ươm rõ ràng hơn.</text><text x="87" y="391" font-family="'Noto Sans','Inter',Arial,sans-serif" font-size="21" fill="#667A72" font-weight="480" text-anchor="start" letter-spacing="0">Theo dõi lô cây, số lượng sẵn bán</text><text x="87" y="425" font-family="'Noto Sans','Inter',Arial,sans-serif" font-size="21" fill="#667A72" font-weight="480" text-anchor="start" letter-spacing="0">và chia sẻ bảng hàng nhanh chóng.</text><rect x="85" y="470" width="278" height="57" rx="15" fill="#163E33"/><text x="224" y="507" font-family="'Noto Sans','Inter',Arial,sans-serif" font-size="15" fill="#FFFFFF" font-weight="680" text-anchor="middle" letter-spacing="0">Từ cây giống đến đơn hàng</text><g transform="translate(157 629) scale(0.9)"><path d="M0 3V-39" fill="none" stroke="#246C4D" stroke-width="4" stroke-linecap="round" stroke-linejoin="round" /><path d="M1-29C-25-24-34-40-34-55c21-2 33 6 35 26Z" fill="#48A878" /><path d="M-1-42C2-67 16-79 37-80c0 22-13 34-38 38Z" fill="#CFE18F" /><path d="M-1-12C14-29 27-27 37-17 25-7 12-5-1-12Z" fill="#BDE9C8" /><path d="M-24-2h48l-5 30h-38Z" fill="#F4E9D5" stroke="#246C4D" stroke-width="2" stroke-linecap="round" stroke-linejoin="round" /><path d="M-27-2h54" fill="none" stroke="#163E33" stroke-width="4" stroke-linecap="round" stroke-linejoin="round" /></g><g transform="translate(282 631) scale(0.72)"><path d="M0 3V-39" fill="none" stroke="#246C4D" stroke-width="4" stroke-linecap="round" stroke-linejoin="round" /><path d="M1-29C-25-24-34-40-34-55c21-2 33 6 35 26Z" fill="#48A878" /><path d="M-1-42C2-67 16-79 37-80c0 22-13 34-38 38Z" fill="#CFE18F" /><path d="M-1-12C14-29 27-27 37-17 25-7 12-5-1-12Z" fill="#BDE9C8" /><path d="M-24-2h48l-5 30h-38Z" fill="#F4E9D5" stroke="#246C4D" stroke-width="2" stroke-linecap="round" stroke-linejoin="round" /><path d="M-27-2h54" fill="none" stroke="#163E33" stroke-width="4" stroke-linecap="round" stroke-linejoin="round" /></g></svg>