<svg xmlns="http://www.w3.org/2000/svg" width="640" height="420" viewBox="0 0 640 420" role="img" aria-label="Tranh minh họa customers"><title>Tranh minh họa customers</title><defs></defs><circle cx="322" cy="183" r="135" fill="#EFF6EB"/><circle cx="415" cy="94" r="25" fill="#E7F1DF"/><circle cx="223" cy="265" r="16" fill="#E3EDDF"/><path d="M124 334H515" fill="none" stroke="#DCE7DB" stroke-width="3" stroke-linecap="round" stroke-linejoin="round" /><rect x="215" y="135" width="218" height="171" rx="23" fill="#FFFFFF" stroke="#DFE8DF" stroke-width="3"/><circle cx="260" cy="186" r="22" fill="#CFE18F"/><circle cx="260" cy="179" r="8" fill="#246C4D"/><path d="M245 199q15-18 30 0" fill="#246C4D" /><rect x="299" y="170" width="100" height="11" rx="5" fill="#EEF5EC"/><rect x="299" y="188" width="69" height="8" rx="4" fill="#DFE8DF"/><circle cx="260" cy="251" r="22" fill="#BDE9C8"/><circle cx="260" cy="244" r="8" fill="#246C4D"/><path d="M245 264q15-18 30 0" fill="#246C4D" /><rect x="299" y="235" width="100" height="11" rx="5" fill="#EEF5EC"/><rect x="299" y="253" width="69" height="8" rx="4" fill="#DFE8DF"/><circle cx="425" cy="145" r="24" fill="#E6B967"/><path d="M425 135v20m-10-10h20" fill="none" stroke="#163E33" stroke-width="3" stroke-linecap="round" stroke-linejoin="round" /></svg>