<svg xmlns="http://www.w3.org/2000/svg" width="880" height="620" viewBox="0 0 880 620" role="img" aria-label="Theo dõi cây theo lô"><title>Theo dõi cây theo lô</title><defs></defs><rect x="0" y="0" width="880" height="620" rx="35" fill="#EEF5EC"/><circle cx="683" cy="189" r="155" fill="#FFFFFF" opacity="0.48"/><circle cx="151" cy="446" r="90" fill="#BDE9C8" opacity="0.32"/><path d="M95 510H795" fill="none" stroke="#CFDDD1" stroke-width="4" stroke-linecap="round" stroke-linejoin="round" /><g transform="translate(267 407) scale(1.72)"><path d="M0 3V-39" fill="none" stroke="#246C4D" stroke-width="4" stroke-linecap="round" stroke-linejoin="round" /><path d="M1-29C-25-24-34-40-34-55c21-2 33 6 35 26Z" fill="#48A878" /><path d="M-1-42C2-67 16-79 37-80c0 22-13 34-38 38Z" fill="#CFE18F" /><path d="M-1-12C14-29 27-27 37-17 25-7 12-5-1-12Z" fill="#BDE9C8" /><path d="M-24-2h48l-5 30h-38Z" fill="#F4E9D5" stroke="#246C4D" stroke-width="2" stroke-linecap="round" stroke-linejoin="round" /><path d="M-27-2h54" fill="none" stroke="#163E33" stroke-width="4" stroke-linecap="round" stroke-linejoin="round" /></g><g transform="translate(420 415) scale(1.3)"><path d="M0 3V-39" fill="none" stroke="#246C4D" stroke-width="4" stroke-linecap="round" stroke-linejoin="round" /><path d="M1-29C-25-24-34-40-34-55c21-2 33 6 35 26Z" fill="#48A878" /><path d="M-1-42C2-67 16-79 37-80c0 22-13 34-38 38Z" fill="#CFE18F" /><path d="M-1-12C14-29 27-27 37-17 25-7 12-5-1-12Z" fill="#BDE9C8" /><path d="M-24-2h48l-5 30h-38Z" fill="#F4E9D5" stroke="#246C4D" stroke-width="2" stroke-linecap="round" stroke-linejoin="round" /><path d="M-27-2h54" fill="none" stroke="#163E33" stroke-width="4" stroke-linecap="round" stroke-linejoin="round" /></g><g transform="translate(559 423) scale(1.05)"><path d="M0 3V-39" fill="none" stroke="#246C4D" stroke-width="4" stroke-linecap="round" stroke-linejoin="round" /><path d="M1-29C-25-24-34-40-34-55c21-2 33 6 35 26Z" fill="#48A878" /><path d="M-1-42C2-67 16-79 37-80c0 22-13 34-38 38Z" fill="#CFE18F" /><path d="M-1-12C14-29 27-27 37-17 25-7 12-5-1-12Z" fill="#BDE9C8" /><path d="M-24-2h48l-5 30h-38Z" fill="#F4E9D5" stroke="#246C4D" stroke-width="2" stroke-linecap="round" stroke-linejoin="round" /><path d="M-27-2h54" fill="none" stroke="#163E33" stroke-width="4" stroke-linecap="round" stroke-linejoin="round" /></g><rect x="513" y="111" width="224" height="155" rx="16" fill="#FFFFFF" stroke="#DFE8DF" stroke-width="1"/><rect x="530" y="126" width="40" height="8" rx="4" fill="#EEF5EC"/><rect x="530" y="140" width="75" height="6" rx="3" fill="#ECF0EA"/><rect x="533" y="218" width="16" height="26" rx="5" fill="#BDE9C8"/><rect x="558" y="198" width="16" height="46" rx="5" fill="#CFE18F"/><rect x="583" y="207" width="16" height="37" rx="5" fill="#48A878"/><rect x="608" y="188" width="16" height="56" rx="5" fill="#246C4D"/><path d="M526 246h198" fill="none" stroke="#DFE8DF" stroke-width="2" stroke-linecap="round" stroke-linejoin="round" /><rect x="132" y="170" width="142" height="58" rx="13" fill="#FFFFFF" stroke="#DFE8DF" stroke-width="2"/><circle cx="166" cy="199" r="13" fill="#CFE18F"/><rect x="189" y="188" width="64" height="9" rx="4" fill="#EEF5EC"/><rect x="189" y="204" width="44" height="8" rx="4" fill="#DFE8DF"/></svg>